<svg width="108" height="111" viewBox="0 0 108 111" fill="none" xmlns="http://www.w3.org/2000/svg">
<circle cx="55.4281" cy="39.8615" r="24.7404" transform="rotate(11.7553 55.4281 39.8615)" fill="#E4C18C"/>
<path d="M60.4696 15.6394C55.5718 21.0552 43.5881 31.5288 35.2072 28.3139C24.731 24.2952 55.7816 10.9867 60.4696 15.6394Z" fill="black"/>
<path d="M60.3813 16.0646C62.7434 22.8342 69.6173 36.9156 78.5779 37.3453C89.7786 37.8825 66.5183 13.7542 60.3813 16.0646Z" fill="black"/>
<path d="M84.1267 71.1033C86.2029 71.5353 81.5967 39.8913 80.2267 37.8012C78.8566 35.711 80.6138 49.4695 76.6264 55.1022C73.3808 59.6868 66.9681 62.7192 64.9506 63.5027C70.4776 65.8562 82.0506 70.6712 84.1267 71.1033Z" fill="black"/>
<path d="M17.7493 57.4563C15.6732 57.0243 32.5204 29.8447 34.6105 28.4746C36.7007 27.1045 29.6008 39.0198 31.0102 45.7756C32.1575 51.2744 36.8281 56.6132 38.3656 58.1365C32.3586 58.0898 19.8255 57.8884 17.7493 57.4563Z" fill="black"/>
<path d="M79.9506 95.5055C72.8152 99.4357 21.0907 87.7694 18.5305 82.7241C17.0902 79.8855 23.8597 72.0598 30.4732 65.354C33.2636 62.5247 36.0262 59.8947 38.1326 57.9228C44.3039 66.4271 58.2936 65.1266 64.9498 63.5034C72.3286 72.8607 85.659 92.3613 79.9506 95.5055Z" fill="#2EAFAF"/>
</svg>
