<svg width="104" height="106" viewBox="0 0 104 106" fill="none" xmlns="http://www.w3.org/2000/svg">
<path d="M77.6234 92.1799C70.488 96.1101 18.7635 84.4438 16.2033 79.3985C14.763 76.5599 21.5325 68.7342 28.146 62.0284C30.9364 59.199 33.699 56.5691 35.8054 54.5972C41.9767 63.1015 55.9664 61.801 62.6226 60.1778C70.0014 69.5351 83.3318 89.0357 77.6234 92.1799Z" fill="#77C9A1"/>
<circle cx="51.5993" cy="39.5713" r="24.7404" transform="rotate(11.7553 51.5993 39.5713)" fill="#E4C18C"/>
<path d="M56.6406 15.35C51.9526 10.6972 20.902 24.0058 31.3782 28.0244C37.047 30.199 47.8641 27.673 53.5219 23.1235C56.2287 20.9469 55.0557 17.1025 56.6406 15.35Z" fill="black"/>
<path d="M54.5217 22.6236C51.4917 19.1236 53.0217 17.105 56.5516 15.7761C58.3433 15.1016 61.0939 15.0643 64.521 17.6251C72.8325 23.8356 82.9518 38.0043 75.0211 37.624C68.8654 37.3288 55.9917 26.6236 54.5217 22.6236Z" fill="black"/>
<path d="M80.2972 70.814C82.3733 71.246 77.7672 39.602 76.3971 37.5118C75.027 35.4217 73.5067 47.9924 69.5193 53.625C66.2737 58.2097 63.5387 61.341 61.5211 62.1245C67.0481 64.478 78.2211 70.3819 80.2972 70.814Z" fill="black"/>
<path d="M13.9201 57.1672C11.844 56.7352 28.6912 27.9956 30.7813 26.6255C32.8715 25.2555 29.5207 38.1251 29.5216 43.6245C29.523 52.3828 32.9989 56.3241 34.5364 57.8474C28.5293 57.8007 15.9962 57.5993 13.9201 57.1672Z" fill="black"/>
</svg>
