<svg width="149" height="112" viewBox="0 0 149 112" fill="none" xmlns="http://www.w3.org/2000/svg">
<path d="M17.2566 50.6061C17.2566 50.6061 14.8052 28.2481 33.2402 28.248C51.6752 28.248 47.361 50.6061 47.361 50.6061" stroke="black"/>
<path d="M24.7119 42.3685C24.7119 42.3685 22.0643 27.9532 35.4006 27.9531C49.3521 27.9531 50.3058 42.3685 50.3058 42.3685" stroke="black"/>
<path d="M0.780323 100.384L4.32637 51.6435C4.70669 46.416 9.05868 42.3691 14.3 42.3691H62.3668H64.2299C66.9414 42.3691 69.1957 44.4565 69.404 47.1599L74.3302 111.11H58.3463H10.754C4.94531 111.11 0.358839 106.178 0.780323 100.384Z" fill="#FFB14C"/>
<path d="M91.8953 23.653C91.8953 23.653 89.4439 1.29499 107.879 1.29492C126.314 1.29486 122 23.653 122 23.653" stroke="black"/>
<path d="M99.3506 15.4154C99.3506 15.4154 96.7029 1.00003 110.039 1C123.991 0.999966 124.945 15.4154 124.945 15.4154" stroke="black"/>
<path d="M75.419 73.4312L78.965 24.6904C79.3454 19.4629 83.6974 15.416 88.9387 15.416H137.005H138.869C141.58 15.416 143.834 17.5034 144.043 20.2068L148.969 84.1568H132.985H85.3926C79.584 84.1568 74.9975 79.2245 75.419 73.4312Z" fill="#ED8523"/>
</svg>
