<svg width="1978" height="2102" viewBox="0 0 1978 2102" fill="none" xmlns="http://www.w3.org/2000/svg">
<g filter="url(#filter0_d_483_41)">
<path d="M1089.01 282.562C1163.64 312.789 1180.89 259.53 1191.21 247.411C1233.78 197.421 1288.34 258.567 1256.5 313.462C1246.14 331.327 1239.52 341.117 1224.53 356.146C1193.63 387.141 1151.45 412.823 1056.04 385.148C1037.31 379.715 877.95 289.627 814.74 363.858C762.172 425.591 794.501 531.339 799.411 555.956C804.759 582.774 830.497 657.378 838.44 712.021L838.592 713.061C846.589 768.053 862.494 877.416 783.194 962.251C703.391 1047.62 475.471 1089.88 485.997 1214.88C496.523 1339.88 749.581 1369.88 1056.04 1369.88C1362.5 1369.88 1399 1538.88 1256.5 1704.88C1114 1870.88 974.985 1907.54 942.997 1924.88L832.497 1846.88C832.497 1846.88 1197.43 1679.84 1179.5 1561.88C1161.56 1443.91 874.43 1516.38 670.463 1487.88C466.497 1459.38 320.497 1392.38 320.497 1229.38C320.497 1066.38 482.457 972.901 539.497 944.878C596.537 916.854 640.122 899.719 670.463 866.257C702.997 830.378 700.628 718.711 694.275 679.422C683.25 611.232 640.485 533.703 651.251 452.057C655.813 417.456 664.801 358.102 711.651 302.263C768.684 234.288 825.917 221.135 854.421 213.464C943.675 189.444 1014.39 252.335 1089.01 282.562Z" fill="#484848"/>
<path d="M1089.01 282.562C1163.64 312.789 1180.89 259.53 1191.21 247.411C1233.78 197.421 1288.34 258.567 1256.5 313.462C1246.14 331.327 1239.52 341.117 1224.53 356.146C1193.63 387.141 1151.45 412.823 1056.04 385.148C1037.31 379.715 877.95 289.627 814.74 363.858C762.172 425.591 794.501 531.339 799.411 555.956C804.759 582.774 830.497 657.378 838.44 712.021L838.592 713.061C846.589 768.053 862.494 877.416 783.194 962.251C703.391 1047.62 475.471 1089.88 485.997 1214.88C496.523 1339.88 749.581 1369.88 1056.04 1369.88C1362.5 1369.88 1399 1538.88 1256.5 1704.88C1114 1870.88 974.985 1907.54 942.997 1924.88L832.497 1846.88C832.497 1846.88 1197.43 1679.84 1179.5 1561.88C1161.56 1443.91 874.43 1516.38 670.463 1487.88C466.497 1459.38 320.497 1392.38 320.497 1229.38C320.497 1066.38 482.457 972.901 539.497 944.878C596.537 916.854 640.122 899.719 670.463 866.257C702.997 830.378 700.628 718.711 694.275 679.422C683.25 611.232 640.485 533.703 651.251 452.057C655.813 417.456 664.801 358.102 711.651 302.263C768.684 234.288 825.917 221.135 854.421 213.464C943.675 189.444 1014.39 252.335 1089.01 282.562Z" stroke="#2489C1" stroke-width="9.44175" stroke-linejoin="round"/>
</g>
<path d="M1243.82 236.615C1232.21 265.923 1198.21 327.786 1155.14 340.765C1101.3 356.989 976.728 266.295 900.198 263.493C879.315 262.728 814.424 265.589 753.527 345.709C704.809 409.805 720.681 509.171 731.803 553.923C749.874 601.325 775.241 718.315 777.428 775.059C780.162 845.988 752.683 886.864 726.682 917.398C603.287 988.891 375.762 1063.59 417.497 1234.88C489.497 1530.38 1159 1344.88 1235 1499.88C1303.4 1639.38 1140.5 1712.88 974.497 1849.88" stroke="#2489C1" stroke-width="5.15005" stroke-dasharray="17.17 17.17"/>
<defs>
<filter id="filter0_d_483_41" x="229.942" y="203.392" width="1197.2" height="1897.88" filterUnits="userSpaceOnUse" color-interpolation-filters="sRGB">
<feFlood flood-opacity="0" result="BackgroundImageFix"/>
<feColorMatrix in="SourceAlpha" type="matrix" values="0 0 0 0 0 0 0 0 0 0 0 0 0 0 0 0 0 0 127 0" result="hardAlpha"/>
<feOffset dy="85.8341"/>
<feGaussianBlur stdDeviation="42.9171"/>
<feComposite in2="hardAlpha" operator="out"/>
<feColorMatrix type="matrix" values="0 0 0 0 0 0 0 0 0 0 0 0 0 0 0 0 0 0 0.25 0"/>
<feBlend mode="normal" in2="BackgroundImageFix" result="effect1_dropShadow_483_41"/>
<feBlend mode="normal" in="SourceGraphic" in2="effect1_dropShadow_483_41" result="shape"/>
</filter>
</defs>
</svg>
