<svg width="86" height="87" viewBox="0 0 86 87" fill="none" xmlns="http://www.w3.org/2000/svg">
<g filter="url(#filter0_d_532_47)">
<path d="M69.7598 73.0085L31.2816 77.1601L12.2381 61.5559V22.9032L5.58594 5.15158L26.4555 15.6021L27.0673 18.179L49.8033 16.1748L57.8903 1L80.5859 12.1663L69.7598 30.2042V73.0085Z" fill="#D2BA9E"/>
<path d="M31.2816 35.9306V77.1601M31.2816 35.9306L12.2381 22.9032M31.2816 35.9306L27.0673 18.179M31.2816 35.9306L49.8033 33.1742L69.7598 30.2042M31.2816 77.1601L69.7598 73.0085V30.2042M31.2816 77.1601L12.2381 61.5559V22.9032M69.7598 30.2042L49.8033 16.1748M69.7598 30.2042L80.5859 12.1663L57.8903 1L49.8033 16.1748M12.2381 22.9032L5.58594 5.15158L26.4555 15.6021L27.0673 18.179M27.0673 18.179L49.8033 16.1748" stroke="black" stroke-width="2" stroke-linejoin="round"/>
<path d="M49.8037 16.1719V33.2077" stroke="black" stroke-width="2" stroke-linejoin="round"/>
</g>
<defs>
<filter id="filter0_d_532_47" x="0.585938" y="0" width="85" height="86.1602" filterUnits="userSpaceOnUse" color-interpolation-filters="sRGB">
<feFlood flood-opacity="0" result="BackgroundImageFix"/>
<feColorMatrix in="SourceAlpha" type="matrix" values="0 0 0 0 0 0 0 0 0 0 0 0 0 0 0 0 0 0 127 0" result="hardAlpha"/>
<feOffset dy="4"/>
<feGaussianBlur stdDeviation="2"/>
<feComposite in2="hardAlpha" operator="out"/>
<feColorMatrix type="matrix" values="0 0 0 0 0 0 0 0 0 0 0 0 0 0 0 0 0 0 0.25 0"/>
<feBlend mode="normal" in2="BackgroundImageFix" result="effect1_dropShadow_532_47"/>
<feBlend mode="normal" in="SourceGraphic" in2="effect1_dropShadow_532_47" result="shape"/>
</filter>
</defs>
</svg>
