<svg width="196" height="279" viewBox="0 0 196 279" fill="none" xmlns="http://www.w3.org/2000/svg">
<g filter="url(#filter0_d_513_333)">
<rect x="10.75" y="113.18" width="65.5476" height="150.5" rx="1.25" fill="#4A9DC9" stroke="#323941" stroke-width="1.5"/>
<path d="M24.8535 105.158H59.9646C60.655 105.158 61.2146 105.718 61.2146 106.408V111.456C61.2146 112.146 60.655 112.706 59.9646 112.706H24.8535C24.1632 112.706 23.6035 112.146 23.6035 111.456V106.408C23.6035 105.718 24.1632 105.158 24.8535 105.158Z" fill="#4A9DC9" stroke="#323941" stroke-width="1.5"/>
<rect x="77.7979" y="20.8945" width="107.452" height="242.786" rx="1.25" fill="#4A9DC9" stroke="#323941" stroke-width="1.5"/>
<rect x="72.0537" y="14.8535" width="113.197" height="248.275" rx="1.25" fill="#4A9DC9" stroke="#323941" stroke-width="1.5"/>
<rect x="77.7979" y="20.8945" width="107.452" height="5.73809" rx="1.25" fill="#4E7088" stroke="#323941" stroke-width="1.5"/>
<rect x="77.7979" y="33.5605" width="107.452" height="5.73809" rx="1.25" fill="#4E7088" stroke="#323941" stroke-width="1.5"/>
<rect x="77.7979" y="98.7051" width="107.452" height="5.73809" rx="1.25" fill="#4E7088" stroke="#323941" stroke-width="1.5"/>
<rect x="77.7979" y="111.371" width="107.452" height="5.73809" rx="1.25" fill="#4E7088" stroke="#323941" stroke-width="1.5"/>
<rect x="77.7979" y="71.5605" width="107.452" height="5.73809" rx="1.25" fill="#4E7088" stroke="#323941" stroke-width="1.5"/>
<rect x="77.7979" y="84.2266" width="107.452" height="5.73809" rx="1.25" fill="#4E7088" stroke="#323941" stroke-width="1.5"/>
<rect x="77.7979" y="46.2266" width="107.452" height="5.73809" rx="1.25" fill="#4E7088" stroke="#323941" stroke-width="1.5"/>
<rect x="77.7979" y="58.8945" width="107.452" height="5.73809" rx="1.25" fill="#4E7088" stroke="#323941" stroke-width="1.5"/>
<rect x="77.7979" y="124.037" width="107.452" height="5.73809" rx="1.25" fill="#4E7088" stroke="#323941" stroke-width="1.5"/>
<rect x="77.7979" y="136.703" width="107.452" height="5.73809" rx="1.25" fill="#4E7088" stroke="#323941" stroke-width="1.5"/>
<rect x="77.7979" y="201.846" width="107.452" height="5.73809" rx="1.25" fill="#4E7088" stroke="#323941" stroke-width="1.5"/>
<rect x="77.7979" y="214.514" width="107.452" height="5.73809" rx="1.25" fill="#4E7088" stroke="#323941" stroke-width="1.5"/>
<rect x="77.7979" y="174.703" width="107.452" height="5.73809" rx="1.25" fill="#4E7088" stroke="#323941" stroke-width="1.5"/>
<rect x="77.7979" y="187.369" width="107.452" height="5.73809" rx="1.25" fill="#4E7088" stroke="#323941" stroke-width="1.5"/>
<rect x="77.7979" y="149.369" width="107.452" height="5.73809" rx="1.25" fill="#4E7088" stroke="#323941" stroke-width="1.5"/>
<rect x="77.7979" y="162.035" width="107.452" height="5.73809" rx="1.25" fill="#4E7088" stroke="#323941" stroke-width="1.5"/>
<rect x="99.7383" y="7.16992" width="40.4048" height="7.03907" rx="1.25" fill="#4A9DC9" stroke="#323941" stroke-width="1.5"/>
</g>
<defs>
<filter id="filter0_d_513_333" x="0" y="0.419922" width="196" height="278.01" filterUnits="userSpaceOnUse" color-interpolation-filters="sRGB">
<feFlood flood-opacity="0" result="BackgroundImageFix"/>
<feColorMatrix in="SourceAlpha" type="matrix" values="0 0 0 0 0 0 0 0 0 0 0 0 0 0 0 0 0 0 127 0" result="hardAlpha"/>
<feOffset dy="4"/>
<feGaussianBlur stdDeviation="5"/>
<feComposite in2="hardAlpha" operator="out"/>
<feColorMatrix type="matrix" values="0 0 0 0 0 0 0 0 0 0 0 0 0 0 0 0 0 0 0.25 0"/>
<feBlend mode="normal" in2="BackgroundImageFix" result="effect1_dropShadow_513_333"/>
<feBlend mode="normal" in="SourceGraphic" in2="effect1_dropShadow_513_333" result="shape"/>
</filter>
</defs>
</svg>
