<svg width="114" height="1794" viewBox="0 0 114 1794" fill="none" xmlns="http://www.w3.org/2000/svg">
<path d="M2 491.864C2 337.307 2.79744 44.7908 20.6038 12.0106C32.0114 -8.98987 101.156 5.56212 101.156 32.4312C101.156 59.3004 97.145 342.148 97.145 491.864C97.145 697.668 112 853.242 112 1063.43C112 1143.46 102.663 1305.07 102.663 1411.93C102.663 1544.78 102.663 1621.18 96.7206 1768.48C95.2832 1804.11 14.1249 1797.13 10.0508 1761.84C2.41955 1695.75 3.34649 1550.94 3.34623 1411.93C3.34604 1303.45 1.64071 1239.83 10.051 1103.97C23.1938 891.67 2 582.919 2 491.864Z" fill="#4A9DC9" stroke="#4E7088" stroke-width="3"/>
<path d="M59.1702 27.0391C59.1702 27.0391 43.4318 398.026 47.7499 552.052C49.5917 617.749 59.7613 785.097 61.7518 968.594C63.8398 1161.09 52.0676 1401.13 52.0676 1488.9C52.0676 1551.06 52.0677 1717.46 58.113 1781.5" stroke="#E8EDEC" stroke-width="3" stroke-dasharray="18 18"/>
</svg>
