<svg width="114" height="1933" viewBox="0 0 114 1933" fill="none" xmlns="http://www.w3.org/2000/svg">
<path d="M2 529.904C2 363.345 2.79744 48.1136 20.6038 12.788C32.0114 -9.84328 101.156 5.83873 101.156 34.7943C101.156 63.7499 97.145 368.562 97.145 529.904C97.145 751.689 112 919.344 112 1145.86C112 1232.09 102.663 1406.26 102.663 1521.42C102.663 1664.58 102.663 1746.92 96.7206 1905.65C95.2832 1944.05 14.1249 1936.53 10.0508 1898.5C2.41955 1827.27 3.34649 1671.22 3.34623 1521.42C3.34604 1404.51 1.64071 1335.95 10.051 1189.55C23.1938 960.756 2 628.029 2 529.904Z" fill="#4A9DC9" stroke="#4E7088" stroke-width="3"/>
<path d="M59.1702 28.9844C59.1702 28.9844 43.4318 428.78 47.7499 594.766C49.5917 665.565 59.7613 845.908 61.7518 1043.65C63.8398 1251.1 52.0676 1509.77 52.0676 1604.37C52.0676 1671.35 52.0677 1850.67 58.113 1919.68" stroke="#E8EDEC" stroke-width="3" stroke-dasharray="18 18"/>
</svg>
