<svg width="114" height="2220" viewBox="0 0 114 2220" fill="none" xmlns="http://www.w3.org/2000/svg">
<path d="M2 608.446C2 417.106 2.79744 54.9745 20.6038 14.393C32.0114 -11.6053 101.156 6.40987 101.156 39.6735C101.156 72.9372 97.145 423.1 97.145 608.446C97.145 863.23 112 1055.83 112 1316.04C112 1415.11 102.663 1615.18 102.663 1747.48C102.663 1911.94 102.663 2006.53 96.7206 2188.88C95.2832 2232.99 14.1249 2224.35 10.0508 2180.67C2.41955 2098.84 3.34649 1919.57 3.34623 1747.48C3.34604 1613.18 1.64071 1534.42 10.051 1366.23C23.1938 1103.4 2 721.171 2 608.446Z" fill="#4A9DC9" stroke="#4E7088" stroke-width="3"/>
<path d="M59.1702 33C59.1702 33 43.4318 492.278 47.7499 682.96C49.5917 764.292 59.7613 971.467 61.7518 1198.63C63.8398 1436.94 52.0676 1734.1 52.0676 1842.77C52.0676 1919.72 52.0677 2125.72 58.113 2205" stroke="#E8EDEC" stroke-width="3" stroke-dasharray="18 18"/>
</svg>
