<svg width="218" height="1652" viewBox="0 0 218 1652" fill="none" xmlns="http://www.w3.org/2000/svg">
<path d="M4.32423 461.436C21.4765 318.71 148.324 45.4364 169.324 14.9365C182.778 -4.60311 216.324 -2.06354 216.324 22.9365C216.324 47.9365 90.7191 323.033 75.3239 461.436C51.0306 679.835 236.824 764.437 198.324 1002.94C186.459 1076.44 97.3624 1211.44 93.3239 1289.44C86.7518 1416.37 180.324 1491.27 180.324 1574.44C180.324 1602.94 157.824 1631.94 138.824 1644.44C126.426 1652.59 106.597 1651.07 93.3239 1644.44C63.6441 1629.6 72.405 1616.82 86.8239 1586.94C114.324 1529.94 -4.67544 1444.94 4.32486 1289.44C10.5678 1181.57 84.7606 1125.21 118.324 1002.94C175.266 795.493 -21.343 675.016 4.32423 461.436Z" fill="#298CC2" stroke="#2489C1" stroke-width="3"/>
<path d="M194.325 20.4365C194.325 20.4365 43.1751 357.533 39.3248 489.437C34.7753 645.297 163.512 758.527 165.825 914.437C168.251 1077.99 86.8252 1121.94 43.8249 1283.94C22.7933 1363.17 122.826 1466.94 130.825 1568.44C133.038 1596.52 105.325 1630.44 105.325 1630.44" stroke="#E8EDEC" stroke-width="3" stroke-dasharray="18 18"/>
</svg>
