<svg width="105" height="109" viewBox="0 0 105 109" fill="none" xmlns="http://www.w3.org/2000/svg">
<circle cx="52.5795" cy="38.9465" r="24.7404" transform="rotate(11.7553 52.5795 38.9465)" fill="#E4C18C"/>
<path d="M57.621 14.7254C52.7232 20.1412 40.7395 30.6147 32.3586 27.3998C21.8824 23.3812 52.933 10.0726 57.621 14.7254Z" fill="black"/>
<path d="M57.5317 15.1505C59.8938 21.9201 66.7676 36.0016 75.7283 36.4313C86.929 36.9684 63.6687 12.8402 57.5317 15.1505Z" fill="black"/>
<path d="M81.2771 70.1892C83.3533 70.6212 78.7471 38.9772 77.3771 36.8871C76.007 34.797 77.7642 48.5554 73.7768 54.1881C70.5312 58.7728 64.1185 61.8051 62.101 62.5886C67.628 64.9421 79.201 69.7572 81.2771 70.1892Z" fill="black"/>
<path d="M14.9007 56.5423C12.8246 56.1102 29.6718 28.9306 31.7619 27.5605C33.852 26.1905 26.7521 38.1058 28.1616 44.8616C29.3088 50.3603 33.9795 55.6991 35.517 57.2224C29.5099 57.1757 16.9768 56.9743 14.9007 56.5423Z" fill="black"/>
<path d="M77.1006 94.5907C69.9651 98.521 18.2407 86.8547 15.6805 81.8094C14.2401 78.9708 21.0097 71.1451 27.6231 64.4393C30.4135 61.6099 33.1762 58.9799 35.2826 57.0081C41.4539 65.5124 55.4435 64.2119 62.0998 62.5887C69.4786 71.946 82.809 91.4466 77.1006 94.5907Z" fill="#77C9A1"/>
</svg>
