<svg width="134" height="1626" viewBox="0 0 134 1626" fill="none" xmlns="http://www.w3.org/2000/svg">
<path d="M2 452.73C2 310.52 2.94243 41.3723 23.9863 11.2109C37.468 -8.11191 119.185 5.27755 119.185 30.0001C119.185 54.7227 114.444 314.975 114.444 452.73C114.444 642.093 132 785.238 132 978.636C132 1052.27 120.965 1200.97 120.965 1299.29C120.965 1421.53 120.965 1491.83 113.942 1627.36C112.244 1660.14 16.3294 1653.72 11.5145 1621.25C2.49584 1560.44 3.5913 1427.2 3.591 1299.29C3.59077 1199.48 1.57538 1140.94 11.5148 1015.94C27.0472 820.596 2 536.51 2 452.73Z" fill="#4A9DC9" stroke="#4E7088" stroke-width="3"/>
<path d="M69.6042 25C69.6042 25 50.7182 366.286 55.8999 507.981C58.1101 568.419 70.3136 722.369 72.7021 891.176C75.2078 1068.26 61.0811 1289.08 61.0811 1369.83C61.0811 1427.01 61.0813 1580.09 68.3356 1639" stroke="#E8EDEC" stroke-width="3" stroke-dasharray="18 18"/>
</svg>
